<svg viewBox="0 0 1112.2000732421875 400" xmlns="http://www.w3.org/2000/svg"><g><g><g><g><g><line x1="50" y1="377" x2="45" y2="377" style="visibility: inherit;" fill="rgb(0, 0, 0)" stroke="rgb(204, 204, 204)" stroke-width="1px"></line><line x1="50" y1="335.1111111111111" x2="45" y2="335.1111111111111" style="visibility: inherit;" fill="rgb(0, 0, 0)" stroke="rgb(204, 204, 204)" stroke-width="1px"></line><line x1="50" y1="293.2222222222222" x2="45" y2="293.2222222222222" style="visibility: inherit;" fill="rgb(0, 0, 0)" stroke="rgb(204, 204, 204)" stroke-width="1px"></line><line x1="50" y1="251.3333333333333" x2="45" y2="251.3333333333333" style="visibility: inherit;" fill="rgb(0, 0, 0)" stroke="rgb(204, 204, 204)" stroke-width="1px"></line><line x1="50" y1="209.44444444444437" x2="45" y2="209.44444444444437" style="visibility: inherit;" fill="rgb(0, 0, 0)" stroke="rgb(204, 204, 204)" stroke-width="1px"></line><line x1="50" y1="167.55555555555543" x2="45" y2="167.55555555555543" style="visibility: inherit;" fill="rgb(0, 0, 0)" stroke="rgb(204, 204, 204)" stroke-width="1px"></line><line x1="50" y1="125.66666666666677" x2="45" y2="125.66666666666677" style="visibility: inherit;" fill="rgb(0, 0, 0)" stroke="rgb(204, 204, 204)" stroke-width="1px"></line><line x1="50" y1="83.77777777777781" x2="45" y2="83.77777777777781" style="visibility: inherit;" fill="rgb(0, 0, 0)" stroke="rgb(204, 204, 204)" stroke-width="1px"></line><line x1="50" y1="41.88888888888891" x2="45" y2="41.88888888888891" style="visibility: inherit;" fill="rgb(0, 0, 0)" stroke="rgb(204, 204, 204)" stroke-width="1px"></line><line x1="50" y1="0" x2="45" y2="0" style="visibility: inherit;" fill="rgb(0, 0, 0)" stroke="rgb(204, 204, 204)" stroke-width="1px"></line></g><g transform="translate(40, 0)"><text x="0" y="377" dx="0em" dy="0.3em" style="text-anchor: end; visibility: hidden; font-family: Roboto, sans-serif; font-size: 12px; font-weight: 200;" fill="rgb(33, 33, 33)" stroke="none" stroke-width="1px">0.82</text><text x="0" y="335.1111111111111" dx="0em" dy="0.3em" style="text-anchor: end; visibility: inherit; font-family: Roboto, sans-serif; font-size: 12px; font-weight: 200;" fill="rgb(33, 33, 33)" stroke="none" stroke-width="1px">0.84</text><text x="0" y="293.2222222222222" dx="0em" dy="0.3em" style="text-anchor: end; visibility: inherit; font-family: Roboto, sans-serif; font-size: 12px; font-weight: 200;" fill="rgb(33, 33, 33)" stroke="none" stroke-width="1px">0.86</text><text x="0" y="251.3333333333333" dx="0em" dy="0.3em" style="text-anchor: end; visibility: inherit; font-family: Roboto, sans-serif; font-size: 12px; font-weight: 200;" fill="rgb(33, 33, 33)" stroke="none" stroke-width="1px">0.88</text><text x="0" y="209.44444444444437" dx="0em" dy="0.3em" style="text-anchor: end; visibility: inherit; font-family: Roboto, sans-serif; font-size: 12px; font-weight: 200;" fill="rgb(33, 33, 33)" stroke="none" stroke-width="1px">0.9</text><text x="0" y="167.55555555555543" dx="0em" dy="0.3em" style="text-anchor: end; visibility: inherit; font-family: Roboto, sans-serif; font-size: 12px; font-weight: 200;" fill="rgb(33, 33, 33)" stroke="none" stroke-width="1px">0.92</text><text x="0" y="125.66666666666677" dx="0em" dy="0.3em" style="text-anchor: end; visibility: inherit; font-family: Roboto, sans-serif; font-size: 12px; font-weight: 200;" fill="rgb(33, 33, 33)" stroke="none" stroke-width="1px">0.94</text><text x="0" y="83.77777777777781" dx="0em" dy="0.3em" style="text-anchor: end; visibility: inherit; font-family: Roboto, sans-serif; font-size: 12px; font-weight: 200;" fill="rgb(33, 33, 33)" stroke="none" stroke-width="1px">0.96</text><text x="0" y="41.88888888888891" dx="0em" dy="0.3em" style="text-anchor: end; visibility: inherit; font-family: Roboto, sans-serif; font-size: 12px; font-weight: 200;" fill="rgb(33, 33, 33)" stroke="none" stroke-width="1px">0.98</text><text x="0" y="0" dx="0em" dy="0.3em" style="text-anchor: end; visibility: hidden; font-family: Roboto, sans-serif; font-size: 12px; font-weight: 200;" fill="rgb(33, 33, 33)" stroke="none" stroke-width="1px">1</text></g><line x1="50" y1="0" x2="50" y2="377" fill="rgb(0, 0, 0)" stroke="rgb(204, 204, 204)" stroke-width="1px"></line></g></g><g transform="translate(50, 0)" clip-path="url(#clip_0)"><clipPath id="clip_0"><rect width="1062" height="377"></rect></clipPath><g><g><g><line x1="0" y1="0" x2="0" y2="377" fill="rgb(0, 0, 0)" stroke="rgb(66, 66, 66)" stroke-width="1px" opacity="0.25"></line><line x1="88.51666666666667" y1="0" x2="88.51666666666667" y2="377" fill="rgb(0, 0, 0)" stroke="rgb(66, 66, 66)" stroke-width="1px" opacity="0.25"></line><line x1="177.03333333333333" y1="0" x2="177.03333333333333" y2="377" fill="rgb(0, 0, 0)" stroke="rgb(66, 66, 66)" stroke-width="1px" opacity="0.25"></line><line x1="265.55" y1="0" x2="265.55" y2="377" fill="rgb(0, 0, 0)" stroke="rgb(66, 66, 66)" stroke-width="1px" opacity="0.25"></line><line x1="354.06666666666666" y1="0" x2="354.06666666666666" y2="377" fill="rgb(0, 0, 0)" stroke="rgb(66, 66, 66)" stroke-width="1px" opacity="0.25"></line><line x1="442.58333333333337" y1="0" x2="442.58333333333337" y2="377" fill="rgb(0, 0, 0)" stroke="rgb(66, 66, 66)" stroke-width="1px" opacity="0.25"></line><line x1="531.1" y1="0" x2="531.1" y2="377" fill="rgb(0, 0, 0)" stroke="rgb(66, 66, 66)" stroke-width="1px" opacity="0.25"></line><line x1="619.6166666666668" y1="0" x2="619.6166666666668" y2="377" fill="rgb(0, 0, 0)" stroke="rgb(66, 66, 66)" stroke-width="1px" opacity="0.25"></line><line x1="708.1333333333333" y1="0" x2="708.1333333333333" y2="377" fill="rgb(0, 0, 0)" stroke="rgb(66, 66, 66)" stroke-width="1px" opacity="0.25"></line><line x1="796.6500000000001" y1="0" x2="796.6500000000001" y2="377" fill="rgb(0, 0, 0)" stroke="rgb(66, 66, 66)" stroke-width="1px" opacity="0.25"></line><line x1="885.1666666666667" y1="0" x2="885.1666666666667" y2="377" fill="rgb(0, 0, 0)" stroke="rgb(66, 66, 66)" stroke-width="1px" opacity="0.25"></line><line x1="973.6833333333333" y1="0" x2="973.6833333333333" y2="377" fill="rgb(0, 0, 0)" stroke="rgb(66, 66, 66)" stroke-width="1px" opacity="0.25"></line><line x1="1062.2" y1="0" x2="1062.2" y2="377" fill="rgb(0, 0, 0)" stroke="rgb(66, 66, 66)" stroke-width="1px" opacity="0.25"></line></g><g><line x1="0" y1="377" x2="1062.2" y2="377" fill="rgb(0, 0, 0)" stroke="rgb(66, 66, 66)" stroke-width="1px" opacity="0.25"></line><line x1="0" y1="335.1111111111111" x2="1062.2" y2="335.1111111111111" fill="rgb(0, 0, 0)" stroke="rgb(66, 66, 66)" stroke-width="1px" opacity="0.25"></line><line x1="0" y1="293.2222222222222" x2="1062.2" y2="293.2222222222222" fill="rgb(0, 0, 0)" stroke="rgb(66, 66, 66)" stroke-width="1px" opacity="0.25"></line><line x1="0" y1="251.3333333333333" x2="1062.2" y2="251.3333333333333" fill="rgb(0, 0, 0)" stroke="rgb(66, 66, 66)" stroke-width="1px" opacity="0.25"></line><line x1="0" y1="209.44444444444437" x2="1062.2" y2="209.44444444444437" fill="rgb(0, 0, 0)" stroke="rgb(66, 66, 66)" stroke-width="1px" opacity="0.25"></line><line x1="0" y1="167.55555555555543" x2="1062.2" y2="167.55555555555543" fill="rgb(0, 0, 0)" stroke="rgb(66, 66, 66)" stroke-width="1px" opacity="0.25"></line><line x1="0" y1="125.66666666666677" x2="1062.2" y2="125.66666666666677" fill="rgb(0, 0, 0)" stroke="rgb(66, 66, 66)" stroke-width="1px" opacity="0.25"></line><line x1="0" y1="83.77777777777781" x2="1062.2" y2="83.77777777777781" fill="rgb(0, 0, 0)" stroke="rgb(66, 66, 66)" stroke-width="1px" opacity="0.25"></line><line x1="0" y1="41.88888888888891" x2="1062.2" y2="41.88888888888891" fill="rgb(0, 0, 0)" stroke="rgb(66, 66, 66)" stroke-width="1px" opacity="0.25"></line><line x1="0" y1="0" x2="1062.2" y2="0" fill="rgb(0, 0, 0)" stroke="rgb(66, 66, 66)" stroke-width="1px" opacity="0.25"></line></g></g></g><g><g><line x1="0" y1="2094.444444444444" x2="1062.2" y2="2094.444444444444" fill="rgb(0, 0, 0)" stroke="rgb(153, 153, 153)" stroke-width="1.5px"></line></g></g><g><g><line x1="88.51666666666667" y1="0" x2="88.51666666666667" y2="377" fill="rgb(0, 0, 0)" stroke="rgb(153, 153, 153)" stroke-width="1.5px"></line></g></g><g><g><g><g><g><path stroke="rgb(238, 51, 119)" stroke-width="2px" d="M88.51666666666667,222.5346972544985L106.22000000000001,198.64495529068813L123.92333333333335,179.310064919952L141.62666666666667,165.64655180509223L159.33,152.92398782043577L177.03333333333333,142.80565591843128L194.73666666666665,134.8907278942856L212.44000000000003,128.43978389307094L230.14333333333335,122.02981014786518L247.8466666666667,117.10161876830256L265.55,113.32302721867534L283.25333333333333,109.17553954693844L300.95666666666665,106.97243673538644L318.66,103.55633300546707L336.36333333333334,100.87975155258619L354.06666666666666,99.20477888637893L371.77,97.0130311245575L389.4733333333333,95.00000153160373L407.17666666666673,93.02431059134636L424.88000000000005,91.07098776423445L442.58333333333337,90.0386623478519L460.2866666666667,89.20984957105067L477.99,89.06167035262358L495.6933333333334,87.71608216056772L513.3966666666666,84.88409487748581L531.1,83.6037669031898L548.8033333333334,83.39410006098885L566.5066666666667,82.43053258681779L584.21,82.41092065977357L601.9133333333333,82.81801212890745L619.6166666666668,82.22449984994314L637.32,81.1004352347984L655.0233333333334,80.00708803937854L672.7266666666667,79.76998823112726L690.4300000000001,81.2334526068805L708.1333333333333,78.13212548064831L725.8366666666667,76.82980726635391L743.54,76.6767540729214L761.2433333333333,75.67734540879282L778.9466666666666,74.86827094739219L796.6500000000001,74.31301651649844L814.3533333333335,73.979863858247L832.0566666666667,73.77997226339885L849.7600000000001,74.14870558943802L867.4633333333334,73.81146754744674L885.1666666666667,72.91097723988855L902.87,74.39526581235549L920.5733333333334,72.842347735271L938.2766666666666,71.98040664373319L955.98,74.11621240882883" style="fill: none;" fill="none"></path></g><g><path stroke="rgb(51, 187, 238)" stroke-width="2px" d="M88.51666666666667,428.3139298359552L106.22000000000001,292.5568492462237L123.92333333333335,235.45939979099083L141.62666666666667,202.89004381526922L159.33,181.28133197386484L177.03333333333333,164.62915854717252L194.73666666666665,152.29431927961326L212.44000000000003,142.57966996718764L230.14333333333335,133.80613557161024L247.8466666666667,126.98345356891808L265.55,120.91937038612693L283.25333333333333,115.47586804369908L300.95666666666665,110.59203569885061L318.66,106.0239060332048L336.36333333333334,102.16773895265914L354.06666666666666,98.4235957102019L371.77,94.99076920066594L389.4733333333333,92.30304366485535L407.17666666666673,89.41635254362126L424.88000000000005,86.48011324909055L442.58333333333337,83.61883571869902L460.2866666666667,81.6053890416855L477.99,79.4897540825862L495.6933333333334,77.43494543504093L513.3966666666666,75.57372696383031L531.1,73.88104284127974L548.8033333333334,72.4989076607134L566.5066666666667,70.25585421844926L584.21,69.17183467893237L601.9133333333333,67.71856091897894L619.6166666666668,65.65973101057948L637.32,64.49424300056447L655.0233333333334,63.28880454052798L672.7266666666667,62.09430067596672L690.4300000000001,60.923785030403096L708.1333333333333,60.064428673994975L725.8366666666667,58.676093055909014L743.54,57.56385267076132L761.2433333333333,56.966318197160774L778.9466666666666,55.752553114592565L796.6500000000001,54.483243499088424L814.3533333333335,53.51222846626813L832.0566666666667,52.44090122846002L849.7600000000001,51.449056112465115L867.4633333333334,50.88885392032681L885.1666666666667,50.41306316024643L902.87,49.37710887355327L920.5733333333334,48.772963772511275L938.2766666666666,48.06142793844262L955.98,47.37269489019623" style="fill: none;" fill="none"></path></g><g><path stroke="rgb(0, 119, 187)" stroke-width="2px" d="M123.92333333333335,426.20163750486296L141.62666666666667,359.31465452768265L159.33,315.65973276745075L177.03333333333333,286.1068148965326L194.73666666666665,264.54247827430964L212.44000000000003,249.156524849804L230.14333333333335,237.48257050223853L247.8466666666667,228.16577797382203L265.55,220.790125395213L283.25333333333333,214.5627333932856L300.95666666666665,209.2970620627714L318.66,205.23377568985464L336.36333333333334,200.14362429376033L354.06666666666666,196.6022094785435L371.77,193.98919914782206L389.4733333333333,192.0027749754593L407.17666666666673,188.64666550367892L424.88000000000005,186.0745823160101L442.58333333333337,183.20487828029513L460.2866666666667,180.50564684713058L477.99,178.18797772930017L495.6933333333334,176.58795771636198L513.3966666666666,174.5807513277684L531.1,172.88771209486907L548.8033333333334,170.54540383581985L566.5066666666667,168.93059102200473L584.21,166.91445739126837L601.9133333333333,164.79720074120308L619.6166666666668,163.31741775888088L637.32,162.42954809510968L655.0233333333334,161.26848858441394L672.7266666666667,159.5944164489285L690.4300000000001,158.2409244188859L708.1333333333333,157.21935001407547L725.8366666666667,155.83844813614854L743.54,154.17214002002947L761.2433333333333,153.59126361883548L778.9466666666666,152.47478054088884L796.6500000000001,151.735031004884L814.3533333333335,150.59303380098245L832.0566666666667,149.27954768660624L849.7600000000001,148.98012430113428L867.4633333333334,148.10232278746975L885.1666666666667,146.80768464224994L902.87,145.89128224578522L920.5733333333334,144.85272258964363L938.2766666666666,143.6710588230031L955.98,142.68282154426848" style="fill: none;" fill="none"></path></g><g><path stroke="rgb(255, 112, 67)" stroke-width="2px" d="M159.33,399.79498495157276L177.03333333333333,348.3057336382472L194.73666666666665,313.4992611746452L212.44000000000003,288.5453860563479L230.14333333333335,270.0003679665928L247.8466666666667,256.3070520312872L265.55,245.18381910852116L283.25333333333333,236.47173222992845L300.95666666666665,229.31675399019994L318.66,222.95110858362168L336.36333333333334,217.80780621094533L354.06666666666666,213.27433683637096L371.77,209.56004153955155L389.4733333333333,205.84813396063302L407.17666666666673,202.27723611737278L424.88000000000005,199.6111944372284L442.58333333333337,196.33606107396864L460.2866666666667,193.30633936255248L477.99,190.47618254892043L495.6933333333334,188.18466710296303L513.3966666666666,185.58799073307594L531.1,183.19222121510356L548.8033333333334,181.21371099951148L566.5066666666667,179.25864845751798L584.21,177.49217863173953L601.9133333333333,175.64686233576086L619.6166666666668,173.9986221809277L637.32,172.381340450291L655.0233333333334,170.74772885761732L672.7266666666667,169.13922420628347L690.4300000000001,167.59816599116434L708.1333333333333,166.39429205740953L725.8366666666667,165.21815436136598L743.54,164.00632605729652L761.2433333333333,162.70322369709274L778.9466666666666,161.6072183863055L796.6500000000001,160.21656284049615L814.3533333333335,159.05054821106575L832.0566666666667,158.14151016963763L849.7600000000001,156.75827041763523L867.4633333333334,155.26508396152116L885.1666666666667,154.07245566277945L902.87,152.9729250327751L920.5733333333334,151.87687072025625L938.2766666666666,150.6083278760484L955.98,149.70758266015483" style="fill: none;" fill="none"></path></g></g></g></g><g opacity="0.2"><g><g><g><path stroke="rgb(238, 51, 119)" stroke-width="2px" d="M88.51666666666667,222.53469725449875L106.22000000000001,184.31111011240213L123.92333333333335,160.74857016404465L141.62666666666667,149.57826038201645L159.33,136.313408282068L177.03333333333333,128.80836029847458L194.73666666666665,123.57225418090816L212.44000000000003,119.03424561023708L230.14333333333335,112.57634394698671L247.8466666666667,109.78382892078821L265.55,107.68941144148506L283.25333333333333,102.97687848409015L300.95666666666665,103.67497603098549L318.66,98.43886991341907L336.36333333333334,96.86802559428743L354.06666666666666,96.6935012075636L371.77,93.72633695602413L389.4733333333333,91.98096825016866L407.17666666666673,90.06107515758936L424.88000000000005,88.14118206501003L442.58333333333337,88.49023083845772L460.2866666666667,87.96665767828621L477.99,88.83940445052252L495.6933333333334,85.69771581225923L513.3966666666666,80.63613408141664L531.1,81.68328040175966L548.8033333333334,83.07960033416744L566.5066666666667,80.98518285486432L584.21,82.38150278727211L601.9133333333333,83.42864910761513L619.6166666666668,81.33423162831197L637.32,79.41433853573267L655.0233333333334,78.36706737677254L672.7266666666667,79.41433853573267L690.4300000000001,83.42864910761513L708.1333333333333,73.48013487127089L725.8366666666667,74.87632996506159L743.54,76.44717428419324L761.2433333333333,74.17823241816626L778.9466666666666,73.65465925799475L796.6500000000001,73.48013487127089L814.3533333333335,73.48013487127089L832.0566666666667,73.48013487127089L849.7600000000001,74.70180557833777L867.4633333333334,73.30561048454706L885.1666666666667,71.56024177869159L902.87,76.62169867091707L920.5733333333334,70.51297061973146L938.2766666666666,70.68749500645528L955.98,77.31992105642952" style="fill: none;" fill="none"></path></g><g><path stroke="rgb(51, 187, 238)" stroke-width="2px" d="M88.51666666666667,428.3139298359552L106.22000000000001,211.1026008923848L123.92333333333335,180.64584831396732L141.62666666666667,164.5884811878204L159.33,153.06899779372742L177.03333333333333,141.59320791562394L194.73666666666665,134.65530176957444L212.44000000000003,128.41561800903742L230.14333333333335,120.86687650945449L247.8466666666667,116.85256593757204L265.55,111.87824640009133L283.25333333333333,107.34023782942029L300.95666666666665,103.2822337415483L318.66,99.18066097630391L336.36333333333334,96.3880211114883L354.06666666666666,92.81002150641547L371.77,89.84298209349312L389.4733333333333,88.27213777436147L407.17666666666673,85.0867556201087L424.88000000000005,82.07602269119684L442.58333333333337,79.32707634237075L460.2866666666667,78.5852852794859L477.99,76.31634341345892L495.6933333333334,74.35275680489008L513.3966666666666,72.78191248575844L531.1,71.34202387597823L548.8033333333334,70.42570842636952L566.5066666666667,66.89127749866907L584.21,67.54580636819202L601.9133333333333,65.5386510822508L619.6166666666668,62.571486830711365L637.32,62.74601121743519L655.0233333333334,61.4806469943788L672.7266666666667,60.302544964684344L690.4300000000001,59.168011612362314L708.1333333333333,58.775394161542245L725.8366666666667,56.59358965026007L743.54,55.8954921033647L761.2433333333333,56.07001649008856L778.9466666666666,53.9319054947959L796.6500000000001,52.579279078377624L814.3533333333335,52.055705918206115L832.0566666666667,50.83391037252211L849.7600000000001,49.961288438902955L867.4633333333334,50.04855063226485L885.1666666666667,49.69937702020008L902.87,47.82317744361029L920.5733333333334,47.866746120982675L938.2766666666666,46.994124187363525L955.98,46.339595317840576" style="fill: none;" fill="none"></path></g><g><path stroke="rgb(0, 119, 187)" stroke-width="2px" d="M106.22000000000001,403.00602118174226L123.92333333333335,315.3884122769037L141.62666666666667,280.655562546518L159.33,258.6638669172922L177.03333333333333,245.2244904306199L194.73666666666665,233.70513187514408L212.44000000000003,226.72365705172214L230.14333333333335,220.26575538847177L247.8466666666667,214.33142688539286L265.55,209.7935431533389L283.25333333333333,205.25553458266782L300.95666666666665,201.41574839750922L318.66,199.1468065314822L336.36333333333334,192.51438048150797L354.06666666666666,191.29258493582404L371.77,190.07078939014005L389.4733333333333,189.02364306979703L407.17666666666673,183.61301256550678L424.88000000000005,182.21669263309897L442.58333333333337,178.90047960811185L460.2866666666667,176.45688851674393L477.99,174.71151981088846L495.6933333333334,174.18794665071695L513.3966666666666,171.56995601124228L531.1,170.34816046555832L548.8033333333334,167.0319474405712L566.5066666666667,166.5083742803997L584.21,163.89025880230793L601.9133333333333,161.62131693628095L619.6166666666668,161.09774377610944L637.32,161.09774377610944L655.0233333333334,159.52689945697782L672.7266666666667,157.08330836560987L690.4300000000001,156.2106864319907L708.1333333333333,155.68698843320206L725.8366666666667,153.76709534062275L743.54,151.6726778613196L761.2433333333333,152.71994902027973L778.9466666666666,150.8000559277004L796.6500000000001,150.62540670235947L814.3533333333335,148.880037996504L832.0566666666667,147.30931851598947L849.7600000000001,148.53098922305634L867.4633333333334,146.78562051720084L885.1666666666667,144.86572742462155L902.87,144.51667865117386L920.5733333333334,143.2948831054899L938.2766666666666,141.8985631730821L955.98,141.20046562618677" style="fill: none;" fill="none"></path></g><g><path stroke="rgb(255, 112, 67)" stroke-width="2px" d="M123.92333333333335,386.94865405559534L141.62666666666667,327.9114733139673L159.33,297.2366276714536L177.03333333333333,277.07756294144514L194.73666666666665,263.7254486481348L212.44000000000003,252.1623965766694L230.14333333333335,242.65006846851767L247.8466666666667,235.974073741171L265.55,228.59985662831195L283.25333333333333,223.45101270410746L300.95666666666665,218.60764887597819L318.66,213.41511143578418L336.36333333333334,210.09889841079703L354.06666666666666,206.4773301283518L371.77,203.99017035961143L389.4733333333333,200.28121504518717L407.17666666666673,196.92143334282764L424.88000000000005,195.61237560378177L442.58333333333337,191.42354064517545L460.2866666666667,188.76185648971128L477.99,186.23100320498142L495.6933333333334,184.7474210792117L513.3966666666666,181.69299463431034L531.1,179.5985771550072L548.8033333333334,178.24595073858893L566.5066666666667,176.32605764600962L584.21,174.8424755202399L601.9133333333333,172.87888891167105L619.6166666666668,171.52626249525278L637.32,169.95541817612113L655.0233333333334,168.2973116636276L672.7266666666667,166.72646734449594L690.4300000000001,165.28657873471573L708.1333333333333,164.5884811878204L725.8366666666667,163.45394783549833L743.54,162.188583612442L761.2433333333333,160.74857016404465L778.9466666666666,159.9632104237874L796.6500000000001,158.13057952457L814.3533333333335,157.30152626832322L832.0566666666667,156.7779531081517L849.7600000000001,154.68341079023145L867.4633333333334,153.0253042777379L885.1666666666667,152.28351321485303L902.87,151.32362908787192L920.5733333333334,150.2327892515394L938.2766666666666,148.70551360978016L955.98,148.3564648363325" style="fill: none;" fill="none"></path></g></g></g></g></g><g><g opacity="0.0669566"><span fill="rgb(0, 0, 0)" stroke="none" stroke-width="1px">Alt + Scroll to Zoom</span></g></g></g><g transform="translate(50, 377)" clip-path="url(#clip_1)"><clipPath id="clip_1"><rect width="1062" height="23"></rect></clipPath><g><g><line x1="0" y1="0" x2="0" y2="5" style="visibility: inherit;" fill="rgb(0, 0, 0)" stroke="rgb(204, 204, 204)" stroke-width="1px"></line><line x1="88.51666666666667" y1="0" x2="88.51666666666667" y2="5" style="visibility: inherit;" fill="rgb(0, 0, 0)" stroke="rgb(204, 204, 204)" stroke-width="1px"></line><line x1="177.03333333333333" y1="0" x2="177.03333333333333" y2="5" style="visibility: inherit;" fill="rgb(0, 0, 0)" stroke="rgb(204, 204, 204)" stroke-width="1px"></line><line x1="265.55" y1="0" x2="265.55" y2="5" style="visibility: inherit;" fill="rgb(0, 0, 0)" stroke="rgb(204, 204, 204)" stroke-width="1px"></line><line x1="354.06666666666666" y1="0" x2="354.06666666666666" y2="5" style="visibility: inherit;" fill="rgb(0, 0, 0)" stroke="rgb(204, 204, 204)" stroke-width="1px"></line><line x1="442.58333333333337" y1="0" x2="442.58333333333337" y2="5" style="visibility: inherit;" fill="rgb(0, 0, 0)" stroke="rgb(204, 204, 204)" stroke-width="1px"></line><line x1="531.1" y1="0" x2="531.1" y2="5" style="visibility: inherit;" fill="rgb(0, 0, 0)" stroke="rgb(204, 204, 204)" stroke-width="1px"></line><line x1="619.6166666666668" y1="0" x2="619.6166666666668" y2="5" style="visibility: inherit;" fill="rgb(0, 0, 0)" stroke="rgb(204, 204, 204)" stroke-width="1px"></line><line x1="708.1333333333333" y1="0" x2="708.1333333333333" y2="5" style="visibility: inherit;" fill="rgb(0, 0, 0)" stroke="rgb(204, 204, 204)" stroke-width="1px"></line><line x1="796.6500000000001" y1="0" x2="796.6500000000001" y2="5" style="visibility: inherit;" fill="rgb(0, 0, 0)" stroke="rgb(204, 204, 204)" stroke-width="1px"></line><line x1="885.1666666666667" y1="0" x2="885.1666666666667" y2="5" style="visibility: inherit;" fill="rgb(0, 0, 0)" stroke="rgb(204, 204, 204)" stroke-width="1px"></line><line x1="973.6833333333333" y1="0" x2="973.6833333333333" y2="5" style="visibility: inherit;" fill="rgb(0, 0, 0)" stroke="rgb(204, 204, 204)" stroke-width="1px"></line><line x1="1062.2" y1="0" x2="1062.2" y2="5" style="visibility: inherit;" fill="rgb(0, 0, 0)" stroke="rgb(204, 204, 204)" stroke-width="1px"></line></g><g transform="translate(0, 8)"><text x="0" y="0" dx="0em" dy="0.95em" style="text-anchor: middle; visibility: hidden; font-family: Roboto, sans-serif; font-size: 12px; font-weight: 200;" fill="rgb(33, 33, 33)" stroke="none" stroke-width="1px">-5</text><text x="88.51666666666667" y="0" dx="0em" dy="0.95em" style="text-anchor: middle; visibility: inherit; font-family: Roboto, sans-serif; font-size: 12px; font-weight: 200;" fill="rgb(33, 33, 33)" stroke="none" stroke-width="1px">0</text><text x="177.03333333333333" y="0" dx="0em" dy="0.95em" style="text-anchor: middle; visibility: inherit; font-family: Roboto, sans-serif; font-size: 12px; font-weight: 200;" fill="rgb(33, 33, 33)" stroke="none" stroke-width="1px">5</text><text x="265.55" y="0" dx="0em" dy="0.95em" style="text-anchor: middle; visibility: inherit; font-family: Roboto, sans-serif; font-size: 12px; font-weight: 200;" fill="rgb(33, 33, 33)" stroke="none" stroke-width="1px">10</text><text x="354.06666666666666" y="0" dx="0em" dy="0.95em" style="text-anchor: middle; visibility: inherit; font-family: Roboto, sans-serif; font-size: 12px; font-weight: 200;" fill="rgb(33, 33, 33)" stroke="none" stroke-width="1px">15</text><text x="442.58333333333337" y="0" dx="0em" dy="0.95em" style="text-anchor: middle; visibility: inherit; font-family: Roboto, sans-serif; font-size: 12px; font-weight: 200;" fill="rgb(33, 33, 33)" stroke="none" stroke-width="1px">20</text><text x="531.1" y="0" dx="0em" dy="0.95em" style="text-anchor: middle; visibility: inherit; font-family: Roboto, sans-serif; font-size: 12px; font-weight: 200;" fill="rgb(33, 33, 33)" stroke="none" stroke-width="1px">25</text><text x="619.6166666666668" y="0" dx="0em" dy="0.95em" style="text-anchor: middle; visibility: inherit; font-family: Roboto, sans-serif; font-size: 12px; font-weight: 200;" fill="rgb(33, 33, 33)" stroke="none" stroke-width="1px">30</text><text x="708.1333333333333" y="0" dx="0em" dy="0.95em" style="text-anchor: middle; visibility: inherit; font-family: Roboto, sans-serif; font-size: 12px; font-weight: 200;" fill="rgb(33, 33, 33)" stroke="none" stroke-width="1px">35</text><text x="796.6500000000001" y="0" dx="0em" dy="0.95em" style="text-anchor: middle; visibility: inherit; font-family: Roboto, sans-serif; font-size: 12px; font-weight: 200;" fill="rgb(33, 33, 33)" stroke="none" stroke-width="1px">40</text><text x="885.1666666666667" y="0" dx="0em" dy="0.95em" style="text-anchor: middle; visibility: inherit; font-family: Roboto, sans-serif; font-size: 12px; font-weight: 200;" fill="rgb(33, 33, 33)" stroke="none" stroke-width="1px">45</text><text x="973.6833333333333" y="0" dx="0em" dy="0.95em" style="text-anchor: middle; visibility: inherit; font-family: Roboto, sans-serif; font-size: 12px; font-weight: 200;" fill="rgb(33, 33, 33)" stroke="none" stroke-width="1px">50</text><text x="1062.2" y="0" dx="0em" dy="0.95em" style="text-anchor: middle; visibility: hidden; font-family: Roboto, sans-serif; font-size: 12px; font-weight: 200;" fill="rgb(33, 33, 33)" stroke="none" stroke-width="1px">55</text></g><line x1="0" y1="0" x2="1062.2" y2="0" fill="rgb(0, 0, 0)" stroke="rgb(204, 204, 204)" stroke-width="1px"></line></g></g></g></g></svg>