<svg viewBox="0 0 1112.2000732421875 400" xmlns="http://www.w3.org/2000/svg"><g><g><g><g><g><line x1="51.5625" y1="377" x2="46.5625" y2="377" style="visibility: inherit;" fill="rgb(0, 0, 0)" stroke="rgb(204, 204, 204)" stroke-width="1px"></line><line x1="51.5625" y1="335.11111111111103" x2="46.5625" y2="335.11111111111103" style="visibility: inherit;" fill="rgb(0, 0, 0)" stroke="rgb(204, 204, 204)" stroke-width="1px"></line><line x1="51.5625" y1="293.2222222222221" x2="46.5625" y2="293.2222222222221" style="visibility: inherit;" fill="rgb(0, 0, 0)" stroke="rgb(204, 204, 204)" stroke-width="1px"></line><line x1="51.5625" y1="251.3333333333336" x2="46.5625" y2="251.3333333333336" style="visibility: inherit;" fill="rgb(0, 0, 0)" stroke="rgb(204, 204, 204)" stroke-width="1px"></line><line x1="51.5625" y1="209.4444444444447" x2="46.5625" y2="209.4444444444447" style="visibility: inherit;" fill="rgb(0, 0, 0)" stroke="rgb(204, 204, 204)" stroke-width="1px"></line><line x1="51.5625" y1="167.55555555555574" x2="46.5625" y2="167.55555555555574" style="visibility: inherit;" fill="rgb(0, 0, 0)" stroke="rgb(204, 204, 204)" stroke-width="1px"></line><line x1="51.5625" y1="125.6666666666668" x2="46.5625" y2="125.6666666666668" style="visibility: inherit;" fill="rgb(0, 0, 0)" stroke="rgb(204, 204, 204)" stroke-width="1px"></line><line x1="51.5625" y1="83.7777777777779" x2="46.5625" y2="83.7777777777779" style="visibility: inherit;" fill="rgb(0, 0, 0)" stroke="rgb(204, 204, 204)" stroke-width="1px"></line><line x1="51.5625" y1="41.88888888888895" x2="46.5625" y2="41.88888888888895" style="visibility: inherit;" fill="rgb(0, 0, 0)" stroke="rgb(204, 204, 204)" stroke-width="1px"></line><line x1="51.5625" y1="0" x2="46.5625" y2="0" style="visibility: inherit;" fill="rgb(0, 0, 0)" stroke="rgb(204, 204, 204)" stroke-width="1px"></line></g><g transform="translate(41.5625, 0)"><text x="0" y="377" dx="0em" dy="0.3em" style="text-anchor: end; visibility: hidden; font-family: Roboto, sans-serif; font-size: 12px; font-weight: 200;" fill="rgb(33, 33, 33)" stroke="none" stroke-width="1px">0.91</text><text x="0" y="335.11111111111103" dx="0em" dy="0.3em" style="text-anchor: end; visibility: inherit; font-family: Roboto, sans-serif; font-size: 12px; font-weight: 200;" fill="rgb(33, 33, 33)" stroke="none" stroke-width="1px">0.92</text><text x="0" y="293.2222222222221" dx="0em" dy="0.3em" style="text-anchor: end; visibility: inherit; font-family: Roboto, sans-serif; font-size: 12px; font-weight: 200;" fill="rgb(33, 33, 33)" stroke="none" stroke-width="1px">0.93</text><text x="0" y="251.3333333333336" dx="0em" dy="0.3em" style="text-anchor: end; visibility: inherit; font-family: Roboto, sans-serif; font-size: 12px; font-weight: 200;" fill="rgb(33, 33, 33)" stroke="none" stroke-width="1px">0.94</text><text x="0" y="209.4444444444447" dx="0em" dy="0.3em" style="text-anchor: end; visibility: inherit; font-family: Roboto, sans-serif; font-size: 12px; font-weight: 200;" fill="rgb(33, 33, 33)" stroke="none" stroke-width="1px">0.95</text><text x="0" y="167.55555555555574" dx="0em" dy="0.3em" style="text-anchor: end; visibility: inherit; font-family: Roboto, sans-serif; font-size: 12px; font-weight: 200;" fill="rgb(33, 33, 33)" stroke="none" stroke-width="1px">0.96</text><text x="0" y="125.6666666666668" dx="0em" dy="0.3em" style="text-anchor: end; visibility: inherit; font-family: Roboto, sans-serif; font-size: 12px; font-weight: 200;" fill="rgb(33, 33, 33)" stroke="none" stroke-width="1px">0.97</text><text x="0" y="83.7777777777779" dx="0em" dy="0.3em" style="text-anchor: end; visibility: inherit; font-family: Roboto, sans-serif; font-size: 12px; font-weight: 200;" fill="rgb(33, 33, 33)" stroke="none" stroke-width="1px">0.98</text><text x="0" y="41.88888888888895" dx="0em" dy="0.3em" style="text-anchor: end; visibility: inherit; font-family: Roboto, sans-serif; font-size: 12px; font-weight: 200;" fill="rgb(33, 33, 33)" stroke="none" stroke-width="1px">0.99</text><text x="0" y="0" dx="0em" dy="0.3em" style="text-anchor: end; visibility: hidden; font-family: Roboto, sans-serif; font-size: 12px; font-weight: 200;" fill="rgb(33, 33, 33)" stroke="none" stroke-width="1px">1</text></g><line x1="51.5625" y1="0" x2="51.5625" y2="377" fill="rgb(0, 0, 0)" stroke="rgb(204, 204, 204)" stroke-width="1px"></line></g></g><g transform="translate(51, 0)" clip-path="url(#clip_0)"><clipPath id="clip_0"><rect width="1060" height="377"></rect></clipPath><g><g><g><line x1="0" y1="0" x2="0" y2="377" fill="rgb(0, 0, 0)" stroke="rgb(66, 66, 66)" stroke-width="1px" opacity="0.25"></line><line x1="88.38645833333334" y1="0" x2="88.38645833333334" y2="377" fill="rgb(0, 0, 0)" stroke="rgb(66, 66, 66)" stroke-width="1px" opacity="0.25"></line><line x1="176.77291666666667" y1="0" x2="176.77291666666667" y2="377" fill="rgb(0, 0, 0)" stroke="rgb(66, 66, 66)" stroke-width="1px" opacity="0.25"></line><line x1="265.159375" y1="0" x2="265.159375" y2="377" fill="rgb(0, 0, 0)" stroke="rgb(66, 66, 66)" stroke-width="1px" opacity="0.25"></line><line x1="353.54583333333335" y1="0" x2="353.54583333333335" y2="377" fill="rgb(0, 0, 0)" stroke="rgb(66, 66, 66)" stroke-width="1px" opacity="0.25"></line><line x1="441.9322916666667" y1="0" x2="441.9322916666667" y2="377" fill="rgb(0, 0, 0)" stroke="rgb(66, 66, 66)" stroke-width="1px" opacity="0.25"></line><line x1="530.31875" y1="0" x2="530.31875" y2="377" fill="rgb(0, 0, 0)" stroke="rgb(66, 66, 66)" stroke-width="1px" opacity="0.25"></line><line x1="618.7052083333334" y1="0" x2="618.7052083333334" y2="377" fill="rgb(0, 0, 0)" stroke="rgb(66, 66, 66)" stroke-width="1px" opacity="0.25"></line><line x1="707.0916666666667" y1="0" x2="707.0916666666667" y2="377" fill="rgb(0, 0, 0)" stroke="rgb(66, 66, 66)" stroke-width="1px" opacity="0.25"></line><line x1="795.4781250000001" y1="0" x2="795.4781250000001" y2="377" fill="rgb(0, 0, 0)" stroke="rgb(66, 66, 66)" stroke-width="1px" opacity="0.25"></line><line x1="883.8645833333334" y1="0" x2="883.8645833333334" y2="377" fill="rgb(0, 0, 0)" stroke="rgb(66, 66, 66)" stroke-width="1px" opacity="0.25"></line><line x1="972.2510416666667" y1="0" x2="972.2510416666667" y2="377" fill="rgb(0, 0, 0)" stroke="rgb(66, 66, 66)" stroke-width="1px" opacity="0.25"></line><line x1="1060.6375" y1="0" x2="1060.6375" y2="377" fill="rgb(0, 0, 0)" stroke="rgb(66, 66, 66)" stroke-width="1px" opacity="0.25"></line></g><g><line x1="0" y1="377" x2="1060.6375" y2="377" fill="rgb(0, 0, 0)" stroke="rgb(66, 66, 66)" stroke-width="1px" opacity="0.25"></line><line x1="0" y1="335.11111111111103" x2="1060.6375" y2="335.11111111111103" fill="rgb(0, 0, 0)" stroke="rgb(66, 66, 66)" stroke-width="1px" opacity="0.25"></line><line x1="0" y1="293.2222222222221" x2="1060.6375" y2="293.2222222222221" fill="rgb(0, 0, 0)" stroke="rgb(66, 66, 66)" stroke-width="1px" opacity="0.25"></line><line x1="0" y1="251.3333333333336" x2="1060.6375" y2="251.3333333333336" fill="rgb(0, 0, 0)" stroke="rgb(66, 66, 66)" stroke-width="1px" opacity="0.25"></line><line x1="0" y1="209.4444444444447" x2="1060.6375" y2="209.4444444444447" fill="rgb(0, 0, 0)" stroke="rgb(66, 66, 66)" stroke-width="1px" opacity="0.25"></line><line x1="0" y1="167.55555555555574" x2="1060.6375" y2="167.55555555555574" fill="rgb(0, 0, 0)" stroke="rgb(66, 66, 66)" stroke-width="1px" opacity="0.25"></line><line x1="0" y1="125.6666666666668" x2="1060.6375" y2="125.6666666666668" fill="rgb(0, 0, 0)" stroke="rgb(66, 66, 66)" stroke-width="1px" opacity="0.25"></line><line x1="0" y1="83.7777777777779" x2="1060.6375" y2="83.7777777777779" fill="rgb(0, 0, 0)" stroke="rgb(66, 66, 66)" stroke-width="1px" opacity="0.25"></line><line x1="0" y1="41.88888888888895" x2="1060.6375" y2="41.88888888888895" fill="rgb(0, 0, 0)" stroke="rgb(66, 66, 66)" stroke-width="1px" opacity="0.25"></line><line x1="0" y1="0" x2="1060.6375" y2="0" fill="rgb(0, 0, 0)" stroke="rgb(66, 66, 66)" stroke-width="1px" opacity="0.25"></line></g></g></g><g><g><line x1="0" y1="4188.8888888888905" x2="1060.6375" y2="4188.8888888888905" fill="rgb(0, 0, 0)" stroke="rgb(153, 153, 153)" stroke-width="1.5px"></line></g></g><g><g><line x1="88.38645833333334" y1="0" x2="88.38645833333334" y2="377" fill="rgb(0, 0, 0)" stroke="rgb(153, 153, 153)" stroke-width="1.5px"></line></g></g><g><g><g><g><g><path stroke="rgb(51, 187, 238)" stroke-width="2px" d="M88.38645833333334,416.44539766841484L106.06375000000001,376.7381347715856L123.74104166666667,365.8295803599889L141.41833333333335,319.7890295239256L159.095625,333.55054601237606L176.77291666666667,315.45802385196447L194.45020833333334,312.0535681018107L212.12750000000003,292.46313597805704L229.8047916666667,288.53832049991865L247.48208333333335,280.0278669558422L265.159375,291.0704586435529L282.8366666666667,285.2161727797916L300.51395833333333,261.7186673610331L318.19125,257.14209282227057L335.86854166666666,247.9724262679613L353.54583333333335,251.41215598608412L371.223125,248.02899029599942L388.9004166666667,241.39114610663165L406.57770833333336,300.1064453784407L424.25500000000005,266.35378183877447L441.9322916666667,257.83206858041996L459.6095833333334,244.76014425094544L477.286875,234.96231132950868L494.9641666666667,229.08366109780752L512.6414583333334,243.98761474609756L530.31875,232.26473911411188L547.9960416666668,221.74033548411313L565.6733333333334,217.38047440257523L583.350625,215.18351802056645L601.0279166666667,241.09305260466454L618.7052083333334,245.88726707378802L636.3825,236.8953371393297L654.0597916666667,228.14901163885878L671.7370833333333,221.50492160118543L689.4143750000001,220.0318186542291L707.0916666666667,214.81945245418478L724.7689583333333,218.2546491044641L742.44625,214.73058720154944L760.1235416666667,214.9898814746953L777.8008333333333,216.68137251432955L795.4781250000001,218.11512566513636L813.1554166666667,219.25461657377724L830.8327083333334,223.1497595770436L848.5100000000001,240.42723146426317L866.1872916666667,230.68710704949189L883.8645833333334,223.0277790374484L901.541875,216.7566482470228L919.2191666666668,215.64694019296687L936.8964583333334,215.39997388869193L954.57375,222.6522273286421" style="fill: none;" fill="none"></path></g><g><path stroke="rgb(204, 51, 17)" stroke-width="2px" d="M141.41833333333335,419.97626977759705L159.095625,367.9899147949613L176.77291666666667,332.99423480120316L194.45020833333334,306.06894907086576L212.12750000000003,289.55227976376665L229.8047916666667,275.44906245981315L247.48208333333335,262.2672368107209L265.159375,250.73073097827506L282.8366666666667,238.86796686041313L300.51395833333333,225.58016354271103L318.19125,217.8281908408782L335.86854166666666,208.9551701913583L353.54583333333335,204.99575291948668L371.223125,200.3514665952136L388.9004166666667,196.37841171928255L406.57770833333336,192.94762691844792L424.25500000000005,189.388175424809L441.9322916666667,190.98774131053472L459.6095833333334,185.62914300316277L477.286875,183.9849108513816L494.9641666666667,177.5876488251828L512.6414583333334,174.06350573444027L530.31875,167.72517938036387L547.9960416666668,164.166574814607L565.6733333333334,162.10122420371994L583.350625,158.59304697914686L601.0279166666667,154.84746206741798L618.7052083333334,152.91430552355914L636.3825,151.40536296012678L654.0597916666667,150.70942677299453L671.7370833333333,146.8708873915015L689.4143750000001,142.22898720434677L707.0916666666667,144.50540395845027L724.7689583333333,141.99656290940214L742.44625,139.6535412305257L760.1235416666667,135.76923225453376L777.8008333333333,135.4283746921289L795.4781250000001,133.58318111211733L813.1554166666667,132.47606496505716L830.8327083333334,131.53255625832344L848.5100000000001,132.8515141531884L866.1872916666667,131.0597282243926L883.8645833333334,127.15711192489827L901.541875,128.09690022856898L919.2191666666668,125.83322846852509L936.8964583333334,123.63720848535193L954.57375,122.11016723139657" style="fill: none;" fill="none"></path></g><g><path stroke="rgb(255, 112, 67)" stroke-width="2px" d="M88.38645833333334,305.43989804055917L106.06375000000001,271.6233013404741L123.74104166666667,242.57083925800833L141.41833333333335,222.37432919978352L159.095625,207.98494607033223L176.77291666666667,191.02179294576334L194.45020833333334,184.66894326796785L212.12750000000003,173.44624093851382L229.8047916666667,172.89964783251585L247.48208333333335,163.30358996038L265.159375,160.94659566137096L282.8366666666667,157.15897395864292L300.51395833333333,154.47227822579887L318.19125,170.8888495375802L335.86854166666666,179.19391806021946L353.54583333333335,163.64310125682312L371.223125,153.6171037468776L388.9004166666667,148.44049349822026L406.57770833333336,148.26725196744468L424.25500000000005,152.77122570022647L441.9322916666667,146.8163058278328L459.6095833333334,151.20245352837173L477.286875,143.3617603265689L494.9641666666667,148.8504554851629L512.6414583333334,142.78842311360208L530.31875,143.8985857505029L547.9960416666668,143.30800537914982L565.6733333333334,141.2781225308095L583.350625,138.24503945796386L601.0279166666667,135.4477536768614L618.7052083333334,131.6749898145915L636.3825,131.36610497528312L654.0597916666667,134.2526031822438L671.7370833333333,137.3807970228957L689.4143750000001,137.86141828123797L707.0916666666667,137.73093249849757L724.7689583333333,136.95444360760447L742.44625,142.49268855620767L760.1235416666667,141.06817269916783L777.8008333333333,148.4516134767146L795.4781250000001,144.92286654146753L813.1554166666667,140.43188697975722L830.8327083333334,138.99397469978152L848.5100000000001,138.55008586027182L866.1872916666667,137.44593562936038L883.8645833333334,139.0175573828788L901.541875,139.2624328880058L919.2191666666668,139.54897770045753L936.8964583333334,139.02270717012613L954.57375,145.26956114726957" style="fill: none;" fill="none"></path></g><g><path stroke="rgb(187, 187, 187)" stroke-width="2px" d="M106.06375000000001,399.9951946238678L123.74104166666667,306.1147552228569L141.41833333333335,251.86332088523847L159.095625,214.53977430718928L176.77291666666667,187.02720831686173L194.45020833333334,165.22375438864924L212.12750000000003,149.02411492893253L229.8047916666667,136.76495365610592L247.48208333333335,126.01215036896059L265.159375,117.21995713774048L282.8366666666667,109.76114572922634L300.51395833333333,102.8844274076335L318.19125,97.82092829355034L335.86854166666666,93.21386120412616L353.54583333333335,88.00677699263247L371.223125,84.18515115004143L388.9004166666667,79.58853391018272L406.57770833333336,76.09776532544421L424.25500000000005,73.1306366650999L441.9322916666667,70.23344832130876L459.6095833333334,67.51772668917309L477.286875,63.723997357292845L494.9641666666667,60.54024782160855L512.6414583333334,59.22344229260916L530.31875,55.78038642571218L547.9960416666668,53.19093303289843L565.6733333333334,50.83440008598197L583.350625,48.12885049999065L601.0279166666667,46.33104689654811L618.7052083333334,45.077790643522576L636.3825,42.65030288130659L654.0597916666667,39.90218001784655L671.7370833333333,38.043877113688694L689.4143750000001,37.17327948633037L707.0916666666667,35.25462594040744L724.7689583333333,34.80153137673355L742.44625,33.55233807104247L760.1235416666667,31.40652712280113L777.8008333333333,30.08408574407672L795.4781250000001,28.941572144246877L813.1554166666667,26.99938852902457L830.8327083333334,25.65950403826874L848.5100000000001,24.646144079957956L866.1872916666667,24.003273163182396L883.8645833333334,21.976871571512895L901.541875,20.55160135251583L919.2191666666668,18.71900278458232L936.8964583333334,17.828872907919635L954.57375,17.678798568172" style="fill: none;" fill="none"></path></g></g></g></g><g opacity="0.2"><g><g><g><path stroke="rgb(51, 187, 238)" stroke-width="2px" d="M88.38645833333334,416.44539766841484L106.06375000000001,352.9137770334881L123.74104166666667,355.357368124856L141.41833333333335,265.6453417407143L159.095625,351.5175819396974L176.77291666666667,290.4295523961386L194.45020833333334,307.185141907798L212.12750000000003,263.9000978734759L229.8047916666667,282.74998002582134L247.48208333333335,267.3908352851868L265.159375,307.53419068124566L282.8366666666667,276.4666027492948L300.51395833333333,226.54913266499844L318.19125,250.2861970000798L335.86854166666666,234.2287050353157L353.54583333333335,256.5693245993721L371.223125,242.95567340321017L388.9004166666667,231.4360651705001L406.57770833333336,388.1704496012795L424.25500000000005,215.72787165641793L441.9322916666667,245.0499660438962L459.6095833333334,225.15268789397354L477.286875,220.2657553884719L494.9641666666667,220.2657553884719L512.6414583333334,266.3434392876096L530.31875,214.68047565884066L547.9960416666668,205.9537569681804L565.6733333333334,210.8406894736821L583.350625,211.8880854712593L601.0279166666667,279.95734016100573L618.7052083333334,253.07858718766116L636.3825,223.4074440267352L654.0597916666667,215.02952443228835L671.7370833333333,211.53878702057736L689.4143750000001,217.82216429710397L707.0916666666667,207.0009032885234L724.7689583333333,223.4074440267352L742.44625,209.44449437989132L760.1235416666667,215.37882288297024L777.8008333333333,219.21860906812887L795.4781250000001,220.2657553884719L813.1554166666667,220.96385293536727L830.8327083333334,228.99247407913217L848.5100000000001,266.3434392876096L866.1872916666667,216.07692042986557L883.8645833333334,211.53878702057736L901.541875,207.3499520619711L919.2191666666668,213.98237811194534L936.8964583333334,215.02952443228835L954.57375,233.53060748842037" style="fill: none;" fill="none"></path></g><g><path stroke="rgb(204, 51, 17)" stroke-width="2px" d="M106.06375000000001,425.4340277777779L123.74104166666667,350.12138684590667L141.41833333333335,322.89358509911443L159.095625,300.1165297296313L176.77291666666667,284.58261092503875L194.45020833333334,267.5653596719107L212.12750000000003,265.4708173539904L229.8047916666667,254.64955634540988L247.48208333333335,242.6937619845073L265.159375,233.53060748842037L282.8366666666667,221.13837732209103L300.51395833333333,205.6918455494775L318.19125,206.21541870964901L335.86854166666666,195.6560691197714L353.54583333333335,199.05941949950332L371.223125,193.38700241512728L388.9004166666667,190.41983816358785L406.57770833333336,187.8019723627303L424.25500000000005,184.0493235323165L441.9322916666667,193.38700241512728L459.6095833333334,177.59142186906607L477.286875,181.51859508620376L494.9641666666667,167.9918315675524L512.6414583333334,168.77731614642678L530.31875,158.2177168793149L547.9960416666668,158.82867707146542L565.6733333333334,159.0032014581893L583.350625,153.33078437381326L601.0279166666667,149.22908676995175L618.7052083333334,150.01457134882614L636.3825,149.14194941520694L654.0597916666667,149.66552257537845L671.7370833333333,141.1130785942078L689.4143750000001,135.26613712310794L707.0916666666667,147.92002903090588L724.7689583333333,138.2333013746474L742.44625,136.13900873396136L760.1235416666667,129.9427688121796L777.8008333333333,134.91708834966028L795.4781250000001,130.8153907457988L813.1554166666667,130.8153907457988L830.8327083333334,130.11729319890344L848.5100000000001,134.8299509949155L866.1872916666667,128.37204933166507L883.8645833333334,121.30318747626414L901.541875,129.50658268398715L919.2191666666668,122.43772082858621L936.8964583333334,120.34317851066594L954.57375,119.81960535049443" style="fill: none;" fill="none"></path></g><g><path stroke="rgb(255, 112, 67)" stroke-width="2px" d="M88.38645833333334,305.4398980405596L106.06375000000001,251.3333433204228L123.74104166666667,214.68047565884066L141.41833333333335,198.62323337131082L159.095625,189.19816745652096L176.77291666666667,167.55564543935995L194.45020833333334,175.58426658312484L212.12750000000003,157.08343320422708L229.8047916666667,172.0935291714139L247.48208333333335,149.05456238322793L265.159375,157.43248197767477L282.8366666666667,151.49815347459585L300.51395833333333,150.45100715425284L318.19125,195.48154473304757L335.86854166666666,191.6417585478889L353.54583333333335,140.32784369256765L371.223125,138.58235014809506L388.9004166666667,140.67689246601535L406.57770833333336,148.00741606288491L424.25500000000005,159.5267746183608L441.9322916666667,137.88425260119973L459.6095833333334,157.7815307511224L477.286875,131.60087532467318L494.9641666666667,157.08343320422708L512.6414583333334,133.6954176425934L530.31875,145.563824971517L547.9960416666668,142.4221363332537L565.6733333333334,138.2333013746474L583.350625,133.6954176425934L601.0279166666667,131.2518265512255L618.7052083333334,126.01584527227617L636.3825,130.90277777777783L654.0597916666667,138.58235014809506L671.7370833333333,142.07308755980603L689.4143750000001,138.58235014809506L707.0916666666667,137.53520382775204L724.7689583333333,135.78971028327945L742.44625,150.80005592770053L760.1235416666667,138.93139892154275L777.8008333333333,159.5267746183608L795.4781250000001,139.62974614567233L813.1554166666667,133.6954176425934L830.8327083333334,136.83710628085672L848.5100000000001,137.88425260119973L866.1872916666667,135.78971028327945L883.8645833333334,141.37499001291067L901.541875,139.62974614567233L919.2191666666668,139.97879491912L936.8964583333334,138.2333013746474L954.57375,154.63984211285916" style="fill: none;" fill="none"></path></g><g><path stroke="rgb(187, 187, 187)" stroke-width="2px" d="M88.38645833333334,600.0582853953046L106.06375000000001,279.95734016100573L123.74104166666667,215.98953339788656L141.41833333333335,188.06363410419894L159.095625,165.81015189488735L176.77291666666667,148.96742502848312L194.45020833333334,134.0444664160411L212.12750000000003,125.40488508012565L229.8047916666667,118.68507199817239L247.48208333333335,110.04549066225694L265.159375,104.11141183641227L282.8366666666667,98.61351913876005L300.51395833333333,92.59180360370215L318.19125,90.23559954431327L335.86854166666666,86.30867600440983L353.54583333333335,80.1998231146071L371.223125,78.4543295701345L388.9004166666667,72.69477513101367L406.57770833333336,70.86214423179631L424.25500000000005,68.68021488189702L441.9322916666667,65.88782469431561L459.6095833333334,63.44423360294768L477.286875,58.03347826004028L494.9641666666667,55.764661232630424L512.6414583333334,57.248243358400146L530.31875,50.6158173084259L547.9960416666668,49.30675956938005L565.6733333333334,47.299604283438825L583.350625,44.07052861319647L601.0279166666667,43.63434248500402L618.7052083333334,43.19790667957732L636.3825,39.00907172097101L654.0597916666667,35.7799960507287L671.7370833333333,35.25642289055719L689.4143750000001,35.867383082707754L707.0916666666667,32.376645670996766L724.7689583333333,34.12188953823516L742.44625,31.678548124101436L760.1235416666667,28.187810712390494L777.8008333333333,28.10042368041144L795.4781250000001,27.227801746792288L813.1554166666667,24.08611310852899L830.8327083333334,23.64967730310229L848.5100000000001,23.12610414293078L866.1872916666667,23.038966788185974L883.8645833333334,18.937269184324467L901.541875,18.41369602415296L919.2191666666668,15.970104932785034L936.8964583333334,16.493678092956543L954.57375,17.45368705855475" style="fill: none;" fill="none"></path></g></g></g></g></g></g><g transform="translate(51, 377)" clip-path="url(#clip_1)"><clipPath id="clip_1"><rect width="1060" height="23"></rect></clipPath><g><g><line x1="0" y1="0" x2="0" y2="5" style="visibility: inherit;" fill="rgb(0, 0, 0)" stroke="rgb(204, 204, 204)" stroke-width="1px"></line><line x1="88.38645833333334" y1="0" x2="88.38645833333334" y2="5" style="visibility: inherit;" fill="rgb(0, 0, 0)" stroke="rgb(204, 204, 204)" stroke-width="1px"></line><line x1="176.77291666666667" y1="0" x2="176.77291666666667" y2="5" style="visibility: inherit;" fill="rgb(0, 0, 0)" stroke="rgb(204, 204, 204)" stroke-width="1px"></line><line x1="265.159375" y1="0" x2="265.159375" y2="5" style="visibility: inherit;" fill="rgb(0, 0, 0)" stroke="rgb(204, 204, 204)" stroke-width="1px"></line><line x1="353.54583333333335" y1="0" x2="353.54583333333335" y2="5" style="visibility: inherit;" fill="rgb(0, 0, 0)" stroke="rgb(204, 204, 204)" stroke-width="1px"></line><line x1="441.9322916666667" y1="0" x2="441.9322916666667" y2="5" style="visibility: inherit;" fill="rgb(0, 0, 0)" stroke="rgb(204, 204, 204)" stroke-width="1px"></line><line x1="530.31875" y1="0" x2="530.31875" y2="5" style="visibility: inherit;" fill="rgb(0, 0, 0)" stroke="rgb(204, 204, 204)" stroke-width="1px"></line><line x1="618.7052083333334" y1="0" x2="618.7052083333334" y2="5" style="visibility: inherit;" fill="rgb(0, 0, 0)" stroke="rgb(204, 204, 204)" stroke-width="1px"></line><line x1="707.0916666666667" y1="0" x2="707.0916666666667" y2="5" style="visibility: inherit;" fill="rgb(0, 0, 0)" stroke="rgb(204, 204, 204)" stroke-width="1px"></line><line x1="795.4781250000001" y1="0" x2="795.4781250000001" y2="5" style="visibility: inherit;" fill="rgb(0, 0, 0)" stroke="rgb(204, 204, 204)" stroke-width="1px"></line><line x1="883.8645833333334" y1="0" x2="883.8645833333334" y2="5" style="visibility: inherit;" fill="rgb(0, 0, 0)" stroke="rgb(204, 204, 204)" stroke-width="1px"></line><line x1="972.2510416666667" y1="0" x2="972.2510416666667" y2="5" style="visibility: inherit;" fill="rgb(0, 0, 0)" stroke="rgb(204, 204, 204)" stroke-width="1px"></line><line x1="1060.6375" y1="0" x2="1060.6375" y2="5" style="visibility: inherit;" fill="rgb(0, 0, 0)" stroke="rgb(204, 204, 204)" stroke-width="1px"></line></g><g transform="translate(0, 8)"><text x="0" y="0" dx="0em" dy="0.95em" style="text-anchor: middle; visibility: hidden; font-family: Roboto, sans-serif; font-size: 12px; font-weight: 200;" fill="rgb(33, 33, 33)" stroke="none" stroke-width="1px">-5</text><text x="88.38645833333334" y="0" dx="0em" dy="0.95em" style="text-anchor: middle; visibility: inherit; font-family: Roboto, sans-serif; font-size: 12px; font-weight: 200;" fill="rgb(33, 33, 33)" stroke="none" stroke-width="1px">0</text><text x="176.77291666666667" y="0" dx="0em" dy="0.95em" style="text-anchor: middle; visibility: inherit; font-family: Roboto, sans-serif; font-size: 12px; font-weight: 200;" fill="rgb(33, 33, 33)" stroke="none" stroke-width="1px">5</text><text x="265.159375" y="0" dx="0em" dy="0.95em" style="text-anchor: middle; visibility: inherit; font-family: Roboto, sans-serif; font-size: 12px; font-weight: 200;" fill="rgb(33, 33, 33)" stroke="none" stroke-width="1px">10</text><text x="353.54583333333335" y="0" dx="0em" dy="0.95em" style="text-anchor: middle; visibility: inherit; font-family: Roboto, sans-serif; font-size: 12px; font-weight: 200;" fill="rgb(33, 33, 33)" stroke="none" stroke-width="1px">15</text><text x="441.9322916666667" y="0" dx="0em" dy="0.95em" style="text-anchor: middle; visibility: inherit; font-family: Roboto, sans-serif; font-size: 12px; font-weight: 200;" fill="rgb(33, 33, 33)" stroke="none" stroke-width="1px">20</text><text x="530.31875" y="0" dx="0em" dy="0.95em" style="text-anchor: middle; visibility: inherit; font-family: Roboto, sans-serif; font-size: 12px; font-weight: 200;" fill="rgb(33, 33, 33)" stroke="none" stroke-width="1px">25</text><text x="618.7052083333334" y="0" dx="0em" dy="0.95em" style="text-anchor: middle; visibility: inherit; font-family: Roboto, sans-serif; font-size: 12px; font-weight: 200;" fill="rgb(33, 33, 33)" stroke="none" stroke-width="1px">30</text><text x="707.0916666666667" y="0" dx="0em" dy="0.95em" style="text-anchor: middle; visibility: inherit; font-family: Roboto, sans-serif; font-size: 12px; font-weight: 200;" fill="rgb(33, 33, 33)" stroke="none" stroke-width="1px">35</text><text x="795.4781250000001" y="0" dx="0em" dy="0.95em" style="text-anchor: middle; visibility: inherit; font-family: Roboto, sans-serif; font-size: 12px; font-weight: 200;" fill="rgb(33, 33, 33)" stroke="none" stroke-width="1px">40</text><text x="883.8645833333334" y="0" dx="0em" dy="0.95em" style="text-anchor: middle; visibility: inherit; font-family: Roboto, sans-serif; font-size: 12px; font-weight: 200;" fill="rgb(33, 33, 33)" stroke="none" stroke-width="1px">45</text><text x="972.2510416666667" y="0" dx="0em" dy="0.95em" style="text-anchor: middle; visibility: inherit; font-family: Roboto, sans-serif; font-size: 12px; font-weight: 200;" fill="rgb(33, 33, 33)" stroke="none" stroke-width="1px">50</text><text x="1060.6375" y="0" dx="0em" dy="0.95em" style="text-anchor: middle; visibility: hidden; font-family: Roboto, sans-serif; font-size: 12px; font-weight: 200;" fill="rgb(33, 33, 33)" stroke="none" stroke-width="1px">55</text></g><line x1="0" y1="0" x2="1060.6375" y2="0" fill="rgb(0, 0, 0)" stroke="rgb(204, 204, 204)" stroke-width="1px"></line></g></g></g></g></svg>