<svg viewBox="0 0 1112.2000732421875 400" xmlns="http://www.w3.org/2000/svg"><g><g><g><g><g><line x1="51.5625" y1="377" x2="46.5625" y2="377" style="visibility: inherit;" fill="rgb(0, 0, 0)" stroke="rgb(204, 204, 204)" stroke-width="1px"></line><line x1="51.5625" y1="335.11111111111103" x2="46.5625" y2="335.11111111111103" style="visibility: inherit;" fill="rgb(0, 0, 0)" stroke="rgb(204, 204, 204)" stroke-width="1px"></line><line x1="51.5625" y1="293.2222222222221" x2="46.5625" y2="293.2222222222221" style="visibility: inherit;" fill="rgb(0, 0, 0)" stroke="rgb(204, 204, 204)" stroke-width="1px"></line><line x1="51.5625" y1="251.3333333333336" x2="46.5625" y2="251.3333333333336" style="visibility: inherit;" fill="rgb(0, 0, 0)" stroke="rgb(204, 204, 204)" stroke-width="1px"></line><line x1="51.5625" y1="209.4444444444447" x2="46.5625" y2="209.4444444444447" style="visibility: inherit;" fill="rgb(0, 0, 0)" stroke="rgb(204, 204, 204)" stroke-width="1px"></line><line x1="51.5625" y1="167.55555555555574" x2="46.5625" y2="167.55555555555574" style="visibility: inherit;" fill="rgb(0, 0, 0)" stroke="rgb(204, 204, 204)" stroke-width="1px"></line><line x1="51.5625" y1="125.6666666666668" x2="46.5625" y2="125.6666666666668" style="visibility: inherit;" fill="rgb(0, 0, 0)" stroke="rgb(204, 204, 204)" stroke-width="1px"></line><line x1="51.5625" y1="83.7777777777779" x2="46.5625" y2="83.7777777777779" style="visibility: inherit;" fill="rgb(0, 0, 0)" stroke="rgb(204, 204, 204)" stroke-width="1px"></line><line x1="51.5625" y1="41.88888888888895" x2="46.5625" y2="41.88888888888895" style="visibility: inherit;" fill="rgb(0, 0, 0)" stroke="rgb(204, 204, 204)" stroke-width="1px"></line><line x1="51.5625" y1="0" x2="46.5625" y2="0" style="visibility: inherit;" fill="rgb(0, 0, 0)" stroke="rgb(204, 204, 204)" stroke-width="1px"></line></g><g transform="translate(41.5625, 0)"><text x="0" y="377" dx="0em" dy="0.3em" style="text-anchor: end; visibility: hidden; font-family: Roboto, sans-serif; font-size: 12px; font-weight: 200;" fill="rgb(33, 33, 33)" stroke="none" stroke-width="1px">0.91</text><text x="0" y="335.11111111111103" dx="0em" dy="0.3em" style="text-anchor: end; visibility: inherit; font-family: Roboto, sans-serif; font-size: 12px; font-weight: 200;" fill="rgb(33, 33, 33)" stroke="none" stroke-width="1px">0.92</text><text x="0" y="293.2222222222221" dx="0em" dy="0.3em" style="text-anchor: end; visibility: inherit; font-family: Roboto, sans-serif; font-size: 12px; font-weight: 200;" fill="rgb(33, 33, 33)" stroke="none" stroke-width="1px">0.93</text><text x="0" y="251.3333333333336" dx="0em" dy="0.3em" style="text-anchor: end; visibility: inherit; font-family: Roboto, sans-serif; font-size: 12px; font-weight: 200;" fill="rgb(33, 33, 33)" stroke="none" stroke-width="1px">0.94</text><text x="0" y="209.4444444444447" dx="0em" dy="0.3em" style="text-anchor: end; visibility: inherit; font-family: Roboto, sans-serif; font-size: 12px; font-weight: 200;" fill="rgb(33, 33, 33)" stroke="none" stroke-width="1px">0.95</text><text x="0" y="167.55555555555574" dx="0em" dy="0.3em" style="text-anchor: end; visibility: inherit; font-family: Roboto, sans-serif; font-size: 12px; font-weight: 200;" fill="rgb(33, 33, 33)" stroke="none" stroke-width="1px">0.96</text><text x="0" y="125.6666666666668" dx="0em" dy="0.3em" style="text-anchor: end; visibility: inherit; font-family: Roboto, sans-serif; font-size: 12px; font-weight: 200;" fill="rgb(33, 33, 33)" stroke="none" stroke-width="1px">0.97</text><text x="0" y="83.7777777777779" dx="0em" dy="0.3em" style="text-anchor: end; visibility: inherit; font-family: Roboto, sans-serif; font-size: 12px; font-weight: 200;" fill="rgb(33, 33, 33)" stroke="none" stroke-width="1px">0.98</text><text x="0" y="41.88888888888895" dx="0em" dy="0.3em" style="text-anchor: end; visibility: inherit; font-family: Roboto, sans-serif; font-size: 12px; font-weight: 200;" fill="rgb(33, 33, 33)" stroke="none" stroke-width="1px">0.99</text><text x="0" y="0" dx="0em" dy="0.3em" style="text-anchor: end; visibility: hidden; font-family: Roboto, sans-serif; font-size: 12px; font-weight: 200;" fill="rgb(33, 33, 33)" stroke="none" stroke-width="1px">1</text></g><line x1="51.5625" y1="0" x2="51.5625" y2="377" fill="rgb(0, 0, 0)" stroke="rgb(204, 204, 204)" stroke-width="1px"></line></g></g><g transform="translate(51, 0)" clip-path="url(#clip_0)"><clipPath id="clip_0"><rect width="1060" height="377"></rect></clipPath><g><g><g><line x1="0" y1="0" x2="0" y2="377" fill="rgb(0, 0, 0)" stroke="rgb(66, 66, 66)" stroke-width="1px" opacity="0.25"></line><line x1="88.38645833333334" y1="0" x2="88.38645833333334" y2="377" fill="rgb(0, 0, 0)" stroke="rgb(66, 66, 66)" stroke-width="1px" opacity="0.25"></line><line x1="176.77291666666667" y1="0" x2="176.77291666666667" y2="377" fill="rgb(0, 0, 0)" stroke="rgb(66, 66, 66)" stroke-width="1px" opacity="0.25"></line><line x1="265.159375" y1="0" x2="265.159375" y2="377" fill="rgb(0, 0, 0)" stroke="rgb(66, 66, 66)" stroke-width="1px" opacity="0.25"></line><line x1="353.54583333333335" y1="0" x2="353.54583333333335" y2="377" fill="rgb(0, 0, 0)" stroke="rgb(66, 66, 66)" stroke-width="1px" opacity="0.25"></line><line x1="441.9322916666667" y1="0" x2="441.9322916666667" y2="377" fill="rgb(0, 0, 0)" stroke="rgb(66, 66, 66)" stroke-width="1px" opacity="0.25"></line><line x1="530.31875" y1="0" x2="530.31875" y2="377" fill="rgb(0, 0, 0)" stroke="rgb(66, 66, 66)" stroke-width="1px" opacity="0.25"></line><line x1="618.7052083333334" y1="0" x2="618.7052083333334" y2="377" fill="rgb(0, 0, 0)" stroke="rgb(66, 66, 66)" stroke-width="1px" opacity="0.25"></line><line x1="707.0916666666667" y1="0" x2="707.0916666666667" y2="377" fill="rgb(0, 0, 0)" stroke="rgb(66, 66, 66)" stroke-width="1px" opacity="0.25"></line><line x1="795.4781250000001" y1="0" x2="795.4781250000001" y2="377" fill="rgb(0, 0, 0)" stroke="rgb(66, 66, 66)" stroke-width="1px" opacity="0.25"></line><line x1="883.8645833333334" y1="0" x2="883.8645833333334" y2="377" fill="rgb(0, 0, 0)" stroke="rgb(66, 66, 66)" stroke-width="1px" opacity="0.25"></line><line x1="972.2510416666667" y1="0" x2="972.2510416666667" y2="377" fill="rgb(0, 0, 0)" stroke="rgb(66, 66, 66)" stroke-width="1px" opacity="0.25"></line><line x1="1060.6375" y1="0" x2="1060.6375" y2="377" fill="rgb(0, 0, 0)" stroke="rgb(66, 66, 66)" stroke-width="1px" opacity="0.25"></line></g><g><line x1="0" y1="377" x2="1060.6375" y2="377" fill="rgb(0, 0, 0)" stroke="rgb(66, 66, 66)" stroke-width="1px" opacity="0.25"></line><line x1="0" y1="335.11111111111103" x2="1060.6375" y2="335.11111111111103" fill="rgb(0, 0, 0)" stroke="rgb(66, 66, 66)" stroke-width="1px" opacity="0.25"></line><line x1="0" y1="293.2222222222221" x2="1060.6375" y2="293.2222222222221" fill="rgb(0, 0, 0)" stroke="rgb(66, 66, 66)" stroke-width="1px" opacity="0.25"></line><line x1="0" y1="251.3333333333336" x2="1060.6375" y2="251.3333333333336" fill="rgb(0, 0, 0)" stroke="rgb(66, 66, 66)" stroke-width="1px" opacity="0.25"></line><line x1="0" y1="209.4444444444447" x2="1060.6375" y2="209.4444444444447" fill="rgb(0, 0, 0)" stroke="rgb(66, 66, 66)" stroke-width="1px" opacity="0.25"></line><line x1="0" y1="167.55555555555574" x2="1060.6375" y2="167.55555555555574" fill="rgb(0, 0, 0)" stroke="rgb(66, 66, 66)" stroke-width="1px" opacity="0.25"></line><line x1="0" y1="125.6666666666668" x2="1060.6375" y2="125.6666666666668" fill="rgb(0, 0, 0)" stroke="rgb(66, 66, 66)" stroke-width="1px" opacity="0.25"></line><line x1="0" y1="83.7777777777779" x2="1060.6375" y2="83.7777777777779" fill="rgb(0, 0, 0)" stroke="rgb(66, 66, 66)" stroke-width="1px" opacity="0.25"></line><line x1="0" y1="41.88888888888895" x2="1060.6375" y2="41.88888888888895" fill="rgb(0, 0, 0)" stroke="rgb(66, 66, 66)" stroke-width="1px" opacity="0.25"></line><line x1="0" y1="0" x2="1060.6375" y2="0" fill="rgb(0, 0, 0)" stroke="rgb(66, 66, 66)" stroke-width="1px" opacity="0.25"></line></g></g></g><g><g><line x1="0" y1="4188.8888888888905" x2="1060.6375" y2="4188.8888888888905" fill="rgb(0, 0, 0)" stroke="rgb(153, 153, 153)" stroke-width="1.5px"></line></g></g><g><g><line x1="88.38645833333334" y1="0" x2="88.38645833333334" y2="377" fill="rgb(0, 0, 0)" stroke="rgb(153, 153, 153)" stroke-width="1.5px"></line></g></g><g><g><g><g><g><path stroke="rgb(204, 51, 17)" stroke-width="2px" d="M123.74104166666667,378.9590462535417L141.41833333333335,354.79786806295505L159.095625,339.4461069701586L176.77291666666667,324.4455604836558L194.45020833333334,310.7346792123446L212.12750000000003,299.77558740644605L229.8047916666667,287.5360573511365L247.48208333333335,275.6359869839166L265.159375,264.61828215445377L282.8366666666667,256.6339560608459L300.51395833333333,249.05825622556753L318.19125,242.70259666184003L335.86854166666666,238.19386412696687L353.54583333333335,232.69660377744796L371.223125,227.86306577471956L388.9004166666667,223.2877624785521L406.57770833333336,219.56538190502394L424.25500000000005,216.3546265609428L441.9322916666667,212.4734326010361L459.6095833333334,210.42401341060452L477.286875,206.9603494965925L494.9641666666667,202.08956549278398L512.6414583333334,198.32929055239308L530.31875,198.86572712316004L547.9960416666668,195.5571779077527L565.6733333333334,194.270248392269L583.350625,194.19618899288287L601.0279166666667,190.1024870908536L618.7052083333334,187.22740794514706L636.3825,185.08350214032282L654.0597916666667,184.91421476589636L671.7370833333333,183.83520588186286L689.4143750000001,182.76894203589018L707.0916666666667,179.6158328035035L724.7689583333333,178.98064274796798L742.44625,178.59952871716263L760.1235416666667,178.09152140931135L777.8008333333333,177.50747800619277L795.4781250000001,176.87781294583974L813.1554166666667,175.52257747293308L830.8327083333334,174.15095815192944L848.5100000000001,173.88646459719405L866.1872916666667,171.63337595258426L883.8645833333334,170.00228374719276L901.541875,168.46505051559237L919.2191666666668,165.8671765931888L936.8964583333334,166.54256413166596L954.57375,164.15520672535564" style="fill: none;" fill="none"></path></g><g><path stroke="rgb(0, 119, 187)" stroke-width="2px" d="M159.095625,387.52128965862585L176.77291666666667,357.402590104359L194.45020833333334,333.25357003792664L212.12750000000003,313.2750496455268L229.8047916666667,298.0844910952382L247.48208333333335,283.59003903793393L265.159375,270.43018793448374L282.8366666666667,259.2763833368738L300.51395833333333,249.20920877480276L318.19125,240.592239055519L335.86854166666666,233.19121809946296L353.54583333333335,226.55305559709228L371.223125,219.6386509777995L388.9004166666667,214.30377107315888L406.57770833333336,208.3452868670371L424.25500000000005,203.51370732389373L441.9322916666667,198.86949063012722L459.6095833333334,193.98860573920086L477.286875,188.61655546705822L494.9641666666667,184.03190598187288L512.6414583333334,180.26883593761798L530.31875,176.78927803157754L547.9960416666668,173.02601138833353L565.6733333333334,168.6037504012065L583.350625,165.14753313677352L601.0279166666667,162.44541579111205L618.7052083333334,158.3807041568944L636.3825,155.03425076733402L654.0597916666667,151.7348484451743L671.7370833333333,148.533386604299L689.4143750000001,145.77479248780284L707.0916666666667,143.49124837867382L724.7689583333333,140.79463671006707L742.44625,138.6880014349421L760.1235416666667,135.95791555223312L777.8008333333333,133.69147636256065L795.4781250000001,131.28446652951402L813.1554166666667,130.36378385589722L830.8327083333334,127.78679149453689L848.5100000000001,126.27545102010087L866.1872916666667,124.18188090576135L883.8645833333334,122.82097426980896L901.541875,120.71289989104051L919.2191666666668,118.78481265881734L936.8964583333334,117.52319575202856L954.57375,116.69641585327578" style="fill: none;" fill="none"></path></g><g><path stroke="rgb(0, 153, 136)" stroke-width="2px" d="M88.38645833333334,298.1093744436896L106.06375000000001,239.63933553960598L123.74104166666667,198.76557996754192L141.41833333333335,170.1453950134366L159.095625,148.58275211319776L176.77291666666667,132.08398719619768L194.45020833333334,120.393113076352L212.12750000000003,109.61518457127022L229.8047916666667,102.27817859846367L247.48208333333335,97.78301521622917L265.159375,93.70199694207302L282.8366666666667,91.68275474000508L300.51395833333333,87.81758627126382L318.19125,84.10432854022166L335.86854166666666,81.31939642330408L353.54583333333335,79.23029870085252L371.223125,76.44104282290247L388.9004166666667,75.74532720367549L406.57770833333336,74.76933110730451L424.25500000000005,74.18377151376839L441.9322916666667,73.41358174288072L459.6095833333334,72.67223599948599L477.286875,72.08781418643353L494.9641666666667,70.48048264250247L512.6414583333334,70.35380802842822L530.31875,70.13818374292907L547.9960416666668,70.42776823486284L565.6733333333334,70.32217967914349L583.350625,69.42110922227336L601.0279166666667,67.4841718872654L618.7052083333334,68.1371634939043L636.3825,66.99304380615209L654.0597916666667,66.16695253573033L671.7370833333333,66.22977585224177L689.4143750000001,65.70899179387898L707.0916666666667,65.53614087541082L724.7689583333333,66.13052787668593L742.44625,63.973909026048055L760.1235416666667,65.05356925641664L777.8008333333333,65.00326784527013L795.4781250000001,64.69384797964285L813.1554166666667,64.64781556987157L830.8327083333334,64.20123772487084L848.5100000000001,63.654051999146475L866.1872916666667,63.46536007316639L883.8645833333334,62.65404737065192L901.541875,62.446498767944234L919.2191666666668,63.29940604289311L936.8964583333334,63.11295299005214L954.57375,63.42003955738298" style="fill: none;" fill="none"></path></g><g><path stroke="rgb(238, 51, 119)" stroke-width="2px" d="M106.06375000000001,392.86110459102537L123.74104166666667,292.7805489017858L141.41833333333335,230.78060368307354L159.095625,188.82356982332666L176.77291666666667,160.20075166158915L194.45020833333334,138.87851859323715L212.12750000000003,122.88784053969572L229.8047916666667,110.11710305966089L247.48208333333335,100.71133359766642L265.159375,92.7571107368344L282.8366666666667,86.49875208998117L300.51395833333333,81.9485549988558L318.19125,76.5671921373593L335.86854166666666,72.53783482280234L353.54583333333335,69.7722860122109L371.223125,67.62470512104089L388.9004166666667,65.14940300785229L406.57770833333336,62.512301678458364L424.25500000000005,60.58108219326792L441.9322916666667,58.305315241284646L459.6095833333334,56.905031620811L477.286875,55.08742908859619L494.9641666666667,53.647826328588614L512.6414583333334,52.1906345008248L530.31875,50.86250794053534L547.9960416666668,49.43734501905611L565.6733333333334,48.89634235323852L583.350625,47.45478447979088L601.0279166666667,46.27565619464868L618.7052083333334,45.49836962644579L636.3825,44.50837461421892L654.0597916666667,43.355899593122935L671.7370833333333,42.69926955858355L689.4143750000001,41.78166844528071L707.0916666666667,40.53301023329857L724.7689583333333,39.95828976670823L742.44625,39.05497944944061L760.1235416666667,38.059179919287246L777.8008333333333,36.90322216435191L795.4781250000001,36.10488294481504L813.1554166666667,35.62587941350237L830.8327083333334,34.7450444443833L848.5100000000001,34.391117785275L866.1872916666667,33.55037412668477L883.8645833333334,33.29031200846191L901.541875,32.47103213251672L919.2191666666668,32.32851298042454L936.8964583333334,31.1609003560223L954.57375,30.181093762629985" style="fill: none;" fill="none"></path></g></g></g></g><g opacity="0.2"><g><g><g><path stroke="rgb(204, 51, 17)" stroke-width="2px" d="M106.06375000000001,385.3778097364639L123.74104166666667,352.5647282600404L141.41833333333335,326.38432251082537L159.095625,319.40284768740344L176.77291666666667,303.6944044960871L194.45020833333334,291.1278996202682L212.12750000000003,283.79712634616436L229.8047916666667,269.48512792587286L247.48208333333335,257.965769370397L265.159375,248.1916546821595L282.8366666666667,244.70091727044857L300.51395833333333,237.7194424470267L318.19125,233.18155871497268L335.86854166666666,231.4360651705001L353.54583333333335,224.4545903470782L371.223125,220.61480416191952L388.9004166666667,216.42596920331326L406.57770833333336,213.98237811194534L424.25500000000005,211.53878702057736L441.9322916666667,206.65185451507577L459.6095833333334,207.3499520619711L477.286875,201.76492200957412L494.9641666666667,194.7834471861522L512.6414583333334,192.68890486823193L530.31875,199.67037969165384L547.9960416666668,190.59436255031167L565.6733333333334,192.33985609478427L583.350625,194.08509996202267L601.0279166666667,183.96193650033743L618.7052083333334,182.9147901799944L636.3825,181.8676438596514L654.0597916666667,184.660283724467L671.7370833333333,182.2166926330991L689.4143750000001,181.16954631275607L707.0916666666667,174.88616903622952L724.7689583333333,178.02785767449276L742.44625,178.02785767449276L760.1235416666667,177.3295104503632L777.8008333333333,176.63141290346786L795.4781250000001,175.93331535657254L813.1554166666667,173.48972426520461L830.8327083333334,172.0935291714139L848.5100000000001,173.48972426520461L866.1872916666667,168.25374298625528L883.8645833333334,167.55564543935995L901.541875,166.159200668335L919.2191666666668,161.97036570972872L936.8964583333334,167.55564543935995L954.57375,160.57417061593802" style="fill: none;" fill="none"></path></g><g><path stroke="rgb(0, 119, 187)" stroke-width="2px" d="M123.74104166666667,392.79572036531243L141.41833333333335,357.45191044277624L159.095625,338.2527298397489L176.77291666666667,315.7375858889687L194.45020833333334,298.7200849586064L212.12750000000003,284.14617511961205L229.8047916666667,275.68136784765466L247.48208333333335,262.0674669742585L265.159375,250.8097701602513L282.8366666666667,242.60637495252828L300.51395833333333,234.14131800333664L318.19125,227.68366601732052L335.86854166666666,222.0983862876893L353.54583333333335,216.60049359003708L371.223125,209.26996999316756L388.9004166666667,206.30280574162808L406.57770833333336,199.408468272951L424.25500000000005,196.2667796346877L441.9322916666667,191.90342028935757L459.6095833333334,186.66743901040823L477.286875,180.5585861206055L494.9641666666667,177.15498606363937L512.6414583333334,174.62425761752664L530.31875,171.5699560112424L547.9960416666668,167.38112105263608L565.6733333333334,161.97036570972872L583.350625,159.9632104237875L601.0279166666667,158.39224126603872L618.7052083333334,152.28363805347024L636.3825,150.01457134882614L654.0597916666667,146.78574535581805L671.7370833333333,143.7311940722996L689.4143750000001,141.63690143161355L707.0916666666667,140.06593227386477L724.7689583333333,136.74971924887768L742.44625,135.52804854181082L760.1235416666667,131.86278674337603L777.8008333333333,130.29181758562729L795.4781250000001,127.67395178476976L813.1554166666667,128.9827598465814L830.8327083333334,123.92130295435594L848.5100000000001,124.00844030910073L866.1872916666667,121.04152573479551L883.8645833333334,120.77961431609263L901.541875,117.55078832308457L919.2191666666668,115.89268181059099L936.8964583333334,115.6307703918881L954.57375,115.45624600516429" style="fill: none;" fill="none"></path></g><g><path stroke="rgb(0, 153, 136)" stroke-width="2px" d="M88.38645833333334,298.10937444369006L106.06375000000001,204.55731219715548L123.74104166666667,159.5267746183608L141.41833333333335,136.48805750740902L159.095625,120.43056554264494L176.77291666666667,109.26025576061674L194.45020833333334,103.67497603098558L212.12750000000003,93.90086134274803L229.8047916666667,91.45751992861432L247.48208333333335,91.10822147793242L265.159375,87.61748406622148L282.8366666666667,88.66488006379875L300.51395833333333,82.0324540138245L318.19125,78.54171660211352L335.86854166666666,77.14527183108862L353.54583333333335,76.0981255107456L371.223125,72.25833932558697L388.9004166666667,74.70193041695494L406.57770833333336,73.30548564592999L424.25500000000005,73.30548564592999L441.9322916666667,72.25833932558697L459.6095833333334,71.56024177869163L477.286875,71.21119300524396L494.9641666666667,68.0695043669807L512.6414583333334,70.16379700766673L530.31875,69.81474823421904L547.9960416666668,70.86214423179631L565.6733333333334,70.16379700766673L583.350625,68.0695043669807L601.0279166666667,64.57876695526971L618.7052083333334,69.11665068732371L636.3825,65.27686450216508L654.0597916666667,64.9278157287174L671.7370833333333,66.3240108225081L689.4143750000001,64.9278157287174L707.0916666666667,65.27686450216508L724.7689583333333,67.02210836940344L742.44625,60.73898077011113L760.1235416666667,66.67305959595575L777.8008333333333,64.9278157287174L795.4781250000001,64.22971818182207L813.1554166666667,64.57876695526971L830.8327083333334,63.531370957692495L848.5100000000001,62.83327341079716L866.1872916666667,63.1823221842448L883.8645833333334,61.43707831700646L901.541875,62.135175863901786L919.2191666666668,64.57876695526971L936.8964583333334,62.83327341079716L954.57375,63.88066940837438" style="fill: none;" fill="none"></path></g><g><path stroke="rgb(238, 51, 119)" stroke-width="2px" d="M88.38645833333334,595.8694504366982L106.06375000000001,271.05609708362164L123.74104166666667,196.7032154401144L141.41833333333335,157.86866810586721L159.095625,134.0444664160411L176.77291666666667,120.60508992936882L194.45020833333334,108.38738414976335L212.12750000000003,99.57327842712407L229.8047916666667,91.28274586465629L247.48208333333335,86.7448621326023L265.159375,80.89792066150244L282.8366666666667,77.14527183108862L300.51395833333333,75.13811654514738L318.19125,68.50569049517316L335.86854166666666,66.49853520923193L353.54583333333335,65.62591327561273L371.223125,64.4042425685459L388.9004166666667,61.43707831700646L406.57770833333336,58.55705142021179L424.25500000000005,57.68442948659264L441.9322916666667,54.89178962177703L459.6095833333334,54.80465226703222L477.286875,52.3610611756643L494.9641666666667,51.4884392420451L512.6414583333334,50.00485711627538L530.31875,48.87032376395335L547.9960416666668,47.299604283438825L565.6733333333334,48.08483918507897L583.350625,45.29244899749756L601.0279166666667,44.50696441862321L618.7052083333334,44.33244003189935L636.3825,43.023382292853455L654.0597916666667,41.627187199062796L671.7370833333333,41.71432455380761L689.4143750000001,40.40526681476171L707.0916666666667,38.66002294752336L724.7689583333333,39.09620907571582L742.44625,37.70001398192511L760.1235416666667,36.56548062960308L777.8008333333333,35.16928553581238L795.4781250000001,34.90737411710954L813.1554166666667,34.90737411710954L830.8327083333334,33.42379199133978L848.5100000000001,33.86022779676652L866.1872916666667,32.28925863901775L883.8645833333334,32.900218831168274L901.541875,31.24211231867474L919.2191666666668,32.114734252293935L936.8964583333334,29.409481419457336L954.57375,28.711383872562003" style="fill: none;" fill="none"></path></g></g></g></g></g></g><g transform="translate(51, 377)" clip-path="url(#clip_1)"><clipPath id="clip_1"><rect width="1060" height="23"></rect></clipPath><g><g><line x1="0" y1="0" x2="0" y2="5" style="visibility: inherit;" fill="rgb(0, 0, 0)" stroke="rgb(204, 204, 204)" stroke-width="1px"></line><line x1="88.38645833333334" y1="0" x2="88.38645833333334" y2="5" style="visibility: inherit;" fill="rgb(0, 0, 0)" stroke="rgb(204, 204, 204)" stroke-width="1px"></line><line x1="176.77291666666667" y1="0" x2="176.77291666666667" y2="5" style="visibility: inherit;" fill="rgb(0, 0, 0)" stroke="rgb(204, 204, 204)" stroke-width="1px"></line><line x1="265.159375" y1="0" x2="265.159375" y2="5" style="visibility: inherit;" fill="rgb(0, 0, 0)" stroke="rgb(204, 204, 204)" stroke-width="1px"></line><line x1="353.54583333333335" y1="0" x2="353.54583333333335" y2="5" style="visibility: inherit;" fill="rgb(0, 0, 0)" stroke="rgb(204, 204, 204)" stroke-width="1px"></line><line x1="441.9322916666667" y1="0" x2="441.9322916666667" y2="5" style="visibility: inherit;" fill="rgb(0, 0, 0)" stroke="rgb(204, 204, 204)" stroke-width="1px"></line><line x1="530.31875" y1="0" x2="530.31875" y2="5" style="visibility: inherit;" fill="rgb(0, 0, 0)" stroke="rgb(204, 204, 204)" stroke-width="1px"></line><line x1="618.7052083333334" y1="0" x2="618.7052083333334" y2="5" style="visibility: inherit;" fill="rgb(0, 0, 0)" stroke="rgb(204, 204, 204)" stroke-width="1px"></line><line x1="707.0916666666667" y1="0" x2="707.0916666666667" y2="5" style="visibility: inherit;" fill="rgb(0, 0, 0)" stroke="rgb(204, 204, 204)" stroke-width="1px"></line><line x1="795.4781250000001" y1="0" x2="795.4781250000001" y2="5" style="visibility: inherit;" fill="rgb(0, 0, 0)" stroke="rgb(204, 204, 204)" stroke-width="1px"></line><line x1="883.8645833333334" y1="0" x2="883.8645833333334" y2="5" style="visibility: inherit;" fill="rgb(0, 0, 0)" stroke="rgb(204, 204, 204)" stroke-width="1px"></line><line x1="972.2510416666667" y1="0" x2="972.2510416666667" y2="5" style="visibility: inherit;" fill="rgb(0, 0, 0)" stroke="rgb(204, 204, 204)" stroke-width="1px"></line><line x1="1060.6375" y1="0" x2="1060.6375" y2="5" style="visibility: inherit;" fill="rgb(0, 0, 0)" stroke="rgb(204, 204, 204)" stroke-width="1px"></line></g><g transform="translate(0, 8)"><text x="0" y="0" dx="0em" dy="0.95em" style="text-anchor: middle; visibility: hidden; font-family: Roboto, sans-serif; font-size: 12px; font-weight: 200;" fill="rgb(33, 33, 33)" stroke="none" stroke-width="1px">-5</text><text x="88.38645833333334" y="0" dx="0em" dy="0.95em" style="text-anchor: middle; visibility: inherit; font-family: Roboto, sans-serif; font-size: 12px; font-weight: 200;" fill="rgb(33, 33, 33)" stroke="none" stroke-width="1px">0</text><text x="176.77291666666667" y="0" dx="0em" dy="0.95em" style="text-anchor: middle; visibility: inherit; font-family: Roboto, sans-serif; font-size: 12px; font-weight: 200;" fill="rgb(33, 33, 33)" stroke="none" stroke-width="1px">5</text><text x="265.159375" y="0" dx="0em" dy="0.95em" style="text-anchor: middle; visibility: inherit; font-family: Roboto, sans-serif; font-size: 12px; font-weight: 200;" fill="rgb(33, 33, 33)" stroke="none" stroke-width="1px">10</text><text x="353.54583333333335" y="0" dx="0em" dy="0.95em" style="text-anchor: middle; visibility: inherit; font-family: Roboto, sans-serif; font-size: 12px; font-weight: 200;" fill="rgb(33, 33, 33)" stroke="none" stroke-width="1px">15</text><text x="441.9322916666667" y="0" dx="0em" dy="0.95em" style="text-anchor: middle; visibility: inherit; font-family: Roboto, sans-serif; font-size: 12px; font-weight: 200;" fill="rgb(33, 33, 33)" stroke="none" stroke-width="1px">20</text><text x="530.31875" y="0" dx="0em" dy="0.95em" style="text-anchor: middle; visibility: inherit; font-family: Roboto, sans-serif; font-size: 12px; font-weight: 200;" fill="rgb(33, 33, 33)" stroke="none" stroke-width="1px">25</text><text x="618.7052083333334" y="0" dx="0em" dy="0.95em" style="text-anchor: middle; visibility: inherit; font-family: Roboto, sans-serif; font-size: 12px; font-weight: 200;" fill="rgb(33, 33, 33)" stroke="none" stroke-width="1px">30</text><text x="707.0916666666667" y="0" dx="0em" dy="0.95em" style="text-anchor: middle; visibility: inherit; font-family: Roboto, sans-serif; font-size: 12px; font-weight: 200;" fill="rgb(33, 33, 33)" stroke="none" stroke-width="1px">35</text><text x="795.4781250000001" y="0" dx="0em" dy="0.95em" style="text-anchor: middle; visibility: inherit; font-family: Roboto, sans-serif; font-size: 12px; font-weight: 200;" fill="rgb(33, 33, 33)" stroke="none" stroke-width="1px">40</text><text x="883.8645833333334" y="0" dx="0em" dy="0.95em" style="text-anchor: middle; visibility: inherit; font-family: Roboto, sans-serif; font-size: 12px; font-weight: 200;" fill="rgb(33, 33, 33)" stroke="none" stroke-width="1px">45</text><text x="972.2510416666667" y="0" dx="0em" dy="0.95em" style="text-anchor: middle; visibility: inherit; font-family: Roboto, sans-serif; font-size: 12px; font-weight: 200;" fill="rgb(33, 33, 33)" stroke="none" stroke-width="1px">50</text><text x="1060.6375" y="0" dx="0em" dy="0.95em" style="text-anchor: middle; visibility: hidden; font-family: Roboto, sans-serif; font-size: 12px; font-weight: 200;" fill="rgb(33, 33, 33)" stroke="none" stroke-width="1px">55</text></g><line x1="0" y1="0" x2="1060.6375" y2="0" fill="rgb(0, 0, 0)" stroke="rgb(204, 204, 204)" stroke-width="1px"></line></g></g></g></g></svg>